<svg width="20" height="20" viewBox="0 0 20 20" fill="none" xmlns="http://www.w3.org/2000/svg">
<circle cx="10" cy="10" r="10" fill="black"/>
<path d="M10 4C6.685 4 4 6.75471 4 10.1523C4 12.8712 5.719 15.1767 8.1025 15.9894C8.4025 16.0473 8.5125 15.8571 8.5125 15.6935C8.5125 15.5474 8.5075 15.1603 8.505 14.6476C6.836 15.0188 6.484 13.8222 6.484 13.8222C6.211 13.1121 5.8165 12.9224 5.8165 12.9224C5.273 12.541 5.8585 12.5487 5.8585 12.5487C6.461 12.5917 6.7775 13.1824 6.7775 13.1824C7.3125 14.1232 8.182 13.8514 8.525 13.694C8.579 13.2962 8.7335 13.025 8.905 12.8712C7.5725 12.7174 6.172 12.1883 6.172 9.83088C6.172 9.15925 6.4045 8.61067 6.7895 8.18C6.722 8.02465 6.5195 7.39917 6.842 6.55168C6.842 6.55168 7.3445 6.38659 8.492 7.1823C8.972 7.04541 9.482 6.97773 9.992 6.97466C10.502 6.97773 11.012 7.04541 11.492 7.1823C12.632 6.38659 13.1345 6.55168 13.1345 6.55168C13.457 7.39917 13.2545 8.02465 13.1945 8.18C13.577 8.61067 13.8095 9.15925 13.8095 9.83088C13.8095 12.1944 12.407 12.7148 11.072 12.866C11.282 13.0506 11.477 13.4279 11.477 14.0042C11.477 14.8276 11.4695 15.489 11.4695 15.6889C11.4695 15.8504 11.5745 16.0427 11.882 15.9812C14.2825 15.1742 16 12.8671 16 10.1523C16 6.75471 13.3135 4 10 4" fill="white"/>
</svg>
