<svg width="20" height="20" viewBox="0 0 20 20" fill="none" xmlns="http://www.w3.org/2000/svg">
<g clip-path="url(#clip0)">
<circle cx="10" cy="10" r="10" fill="white"/>
<path fill-rule="evenodd" clip-rule="evenodd" d="M10.003 0C15.5236 0 20.006 4.47645 20.006 10.003C20.006 15.5236 15.5296 20.006 10.003 20.006C4.48245 20.006 0 15.5296 0 10.003C0 4.48245 4.47645 0 10.003 0ZM8.71287 8.0168H10.7651V9.06691H10.7951C11.0831 8.55085 11.7792 8.0168 12.8233 8.0168C14.9895 8.0168 15.3915 9.36694 15.3915 11.1191V14.6955H13.2493V11.5272C13.2493 10.7711 13.2313 9.79898 12.1332 9.79898C11.0171 9.79898 10.8491 10.6211 10.8491 11.4731V14.6955H8.70687V8.0168H8.71287ZM7.23072 6.16262C7.23072 6.77468 6.73267 7.27873 6.11461 7.27873C5.50255 7.27873 4.9985 6.78068 4.9985 6.16262C4.9985 5.55055 5.49655 5.0465 6.11461 5.0465C6.72667 5.0465 7.23072 5.54455 7.23072 6.16262ZM5.0045 8.0168H7.23072V14.6955H5.0045V8.0168Z" fill="black"/>
</g>
<defs>
<clipPath id="clip0">
<rect width="20" height="20" fill="white"/>
</clipPath>
</defs>
</svg>
