<svg width="20" height="20" viewBox="0 0 20 20" fill="none" xmlns="http://www.w3.org/2000/svg">
<path d="M10 20C15.5228 20 20 15.5228 20 10C20 4.47715 15.5228 0 10 0C4.47715 0 0 4.47715 0 10C0 15.5228 4.47715 20 10 20Z" fill="url(#paint0_linear)"/>
<path d="M4.16135 9.91325L10.8955 7.13868C11.5602 6.84967 13.8145 5.92481 13.8145 5.92481C13.8145 5.92481 14.855 5.52019 14.7683 6.50284C14.7394 6.90747 14.5082 8.32365 14.277 9.85545L13.5544 14.393C13.5544 14.393 13.4966 15.0578 13.0053 15.1734C12.514 15.289 11.7047 14.7687 11.5602 14.6531C11.4446 14.5664 9.39257 13.2659 8.64113 12.63C8.43881 12.4566 8.2076 12.1098 8.67003 11.7052C9.71049 10.7514 10.9533 9.56643 11.7047 8.81498C12.0515 8.46816 12.3984 7.65891 10.9533 8.64157L6.87812 11.3872C6.87812 11.3872 6.41569 11.6763 5.54864 11.4161C4.68159 11.156 3.67002 10.8092 3.67002 10.8092C3.67002 10.8092 2.97638 10.3757 4.16135 9.91325V9.91325Z" fill="white"/>
<defs>
<linearGradient id="paint0_linear" x1="13.3341" y1="3.3341" x2="8.3341" y2="15" gradientUnits="userSpaceOnUse">
<stop stop-color="#37AEE2"/>
<stop offset="1" stop-color="#1E96C8"/>
</linearGradient>
</defs>
</svg>
