<svg width="20" height="20" viewBox="0 0 20 20" fill="none" xmlns="http://www.w3.org/2000/svg">
<g clip-path="url(#clip0)">
<path d="M10 20C15.5228 20 20 15.5228 20 10C20 4.47715 15.5228 0 10 0C4.47715 0 0 4.47715 0 10C0 15.5228 4.47715 20 10 20Z" fill="black"/>
<path d="M16.4121 6.02203C15.9404 6.23134 15.4338 6.37283 14.9011 6.43643C15.4447 6.1109 15.8612 5.59504 16.0579 4.98108C15.5414 5.2878 14.9763 5.50373 14.3869 5.61949C13.9073 5.10825 13.2234 4.78906 12.4667 4.78906C11.0143 4.78906 9.83639 5.96648 9.83639 7.41972C9.83639 7.62563 9.85958 7.82652 9.90417 8.01938C7.71778 7.9095 5.77941 6.8622 4.48196 5.27083C4.25541 5.65949 4.12573 6.11137 4.12573 6.59351C4.12573 7.50607 4.59021 8.31124 5.29598 8.78288C4.87818 8.76994 4.46954 8.65716 4.10424 8.45399V8.48723C4.10424 9.76193 5.01089 10.8248 6.21442 11.0665C5.99334 11.1271 5.76132 11.1588 5.52128 11.1588C5.35157 11.1588 5.18692 11.1427 5.02607 11.1125C5.36084 12.1572 6.33239 12.9178 7.48322 12.9392C6.58288 13.645 5.44841 14.0657 4.21626 14.0657C4.00403 14.0657 3.79429 14.0531 3.58838 14.0282C4.75276 14.7749 6.13527 15.2107 7.62094 15.2107C12.4595 15.2107 15.1058 11.2022 15.1058 7.7259C15.1058 7.61178 15.1032 7.4985 15.0977 7.38563C15.6133 7.01272 16.0584 6.55098 16.4121 6.02203V6.02203Z" fill="white"/>
</g>
<defs>
<clipPath id="clip0">
<rect width="20" height="20" fill="white"/>
</clipPath>
</defs>
</svg>
